<?xml version="1.0" encoding="UTF-8"?>
<svg xmlns="http://www.w3.org/2000/svg" xmlns:xlink="http://www.w3.org/1999/xlink" width="297px" height="103px" viewBox="0 0 297 103" version="1.1">
  <title>Group 8</title>
  <g id="Desktop" stroke="none" stroke-width="1" fill="none" fill-rule="evenodd">
    <g id="Group-8" transform="translate(0.505000, 0.000000)">
      <polygon id="Fill-1" fill="#EB6608" points="0 35.1137458 0 86.2791114 16.5535714 91.9642857 16.5535714 29.4285714"></polygon>
      <path d="M51.9596714,0 L34.9464286,5.7217512 L34.9464286,97.2776432 L51.9596714,103 L103,85.8335352 L103,17.1664648 L51.9596714,0 Z M56.1610649,5.88163078 L98.7992067,20.222345 L98.7992067,82.7782606 L56.1610649,97.1189748 L56.1610649,5.88163078 Z" id="Fill-2" fill="#FEFEFE"></path>
      <g id="Group-7" transform="translate(119.553571, 0.000000)" fill="#FEFEFE">
        <path d="M153.758371,26.1026265 L148.460558,25.2093646 C142.082955,24.1398727 139.11974,22.8008883 139.11974,18.9650098 C139.11974,15.662666 141.633598,13.6999122 147.29235,13.6999122 C154.297358,13.6999122 157.17276,16.1083885 157.440436,21.1058103 L174.325248,21.1058103 C173.608214,7.18727602 163.907669,0.139288295 147.022857,0.139288295 C129.060072,0.139288295 120.797228,8.79272502 120.797228,19.7680371 C120.797228,31.2774894 128.521086,37.9681724 142.981669,40.2888365 L148.011201,41.0918638 C155.824688,42.3394025 158.069658,43.5887579 158.069658,47.2465897 C158.069658,50.8166092 155.196072,52.9574098 149.087962,52.9574098 C142.17319,52.9574098 137.232682,51.7080543 137.053424,44.214344 L119.808884,44.214344 C119.808884,57.2408276 129.060072,66.5192449 148.369112,66.5192449 C165.075876,66.5192449 176.571429,60.0950265 176.571429,45.909422 C176.571429,34.5780164 169.387163,28.6891496 153.758371,26.1026265 L153.758371,26.1026265 Z M98.1646402,45.2844415 C98.1646402,41.448563 95.7404122,39.4852036 91.6992247,39.4852036 L78.2269849,39.4852036 L78.2269849,51.0848906 L91.6992247,51.0848906 C95.7404122,51.0848906 98.1646402,49.1215312 98.1646402,45.2844415 L98.1646402,45.2844415 Z M78.2269849,26.3690911 L90.8005102,26.3690911 C94.2130819,26.3690911 96.2800043,24.1386615 96.2800043,20.9277635 C96.2800043,17.7156543 94.2130819,15.4852248 90.8005102,15.4852248 L78.2269849,15.4852248 L78.2269849,26.3690911 Z M116.756646,46.3557502 C116.756646,57.5969212 109.482751,65.0924483 92.6875685,65.0924483 L60.2635948,65.0924483 L60.2635948,1.56547932 L92.0583472,1.56547932 C108.673665,1.56547932 114.15316,9.59635793 114.15316,17.7156543 C114.15316,23.9606147 110.918635,28.6897552 105.798869,31.0086025 C112.625224,33.4188956 116.756646,40.0211608 116.756646,46.3557502 L116.756646,46.3557502 Z M56.762605,45.7701337 C56.762605,59.9557382 45.2670528,66.3799566 28.5602884,66.3799566 C9.25124887,66.3799566 6.05602798e-05,57.1015393 6.05602798e-05,44.0750558 L17.2439946,44.0750558 C17.4238586,51.568766 22.3637606,52.8181215 29.2791389,52.8181215 C35.3872487,52.8181215 38.2602284,50.6773209 38.2602284,47.1073014 C38.2602284,43.4494696 36.0140476,42.2001142 28.2023772,40.9525755 L23.1728459,40.1489426 C8.71226238,37.8288841 0.988404323,31.1382012 0.988404323,19.6287488 C0.988404323,8.65343673 9.25124887,0 27.2140334,0 C44.098845,0 53.7993905,7.04798773 54.5164243,20.9659164 L37.6316127,20.9659164 C37.3621195,15.9691002 34.4885342,13.5606239 27.4817098,13.5606239 C21.8247741,13.5606239 19.3091001,15.5233777 19.3091001,18.8251159 C19.3091001,22.6609944 22.2741314,24.0005844 28.6499176,25.0700763 L33.9495477,25.9633382 C49.5765222,28.5498613 56.762605,34.4387281 56.762605,45.7701337 L56.762605,45.7701337 Z" id="Fill-3"></path>
        <path d="M11.8643644,103 C17.7132762,103 22.4593853,99.6570809 23.1939815,93.3073515 L17.5461298,93.3073515 C17.0113825,96.4831246 14.6725445,98.1200649 11.8643644,98.1200649 C8.02060343,98.1200649 5.88221996,95.3118917 5.88221996,90.5657945 C5.88221996,85.8530053 8.02060343,83.0133409 11.8643644,83.0133409 C14.5387063,83.0133409 16.6770898,84.383211 17.4122916,87.1913841 L23.1273652,87.1913841 C22.1917089,81.2407459 17.5128217,78.1334057 11.8643644,78.1334057 C4.61045409,78.1334057 0,82.9128111 0,90.5657945 C0,98.2205947 4.77941727,103 11.8643644,103 L11.8643644,103 Z M31.7263193,97.4187786 L31.7263193,78.6681517 L26.077862,78.6681517 L26.077862,102.465254 L42.623536,102.465254 L42.623536,97.4187786 L31.7263193,97.4187786 Z M61.9840518,102.465254 L67.9668018,102.465254 L59.0087252,78.6681517 L52.291379,78.6681517 L43.5343626,102.465254 L49.3160525,102.465254 L50.6877428,98.3205189 L60.5808701,98.3205189 L61.9840518,102.465254 Z M52.2580709,93.6077297 L53.6279444,89.5302163 C54.229308,87.7594381 54.9312016,85.5859351 55.6009983,83.5141731 C56.2695838,85.5859351 56.9708718,87.7594381 57.6055436,89.5302163 L58.9754171,93.6077297 L52.2580709,93.6077297 Z M79.5743906,78.6681517 L69.8151015,78.6681517 L69.8151015,102.465254 L79.5743906,102.465254 C87.7300434,102.465254 91.7409508,97.6858487 91.7409508,90.5657945 C91.7409508,83.447557 87.7300434,78.6681517 79.5743906,78.6681517 L79.5743906,78.6681517 Z M79.4738605,97.6858487 L75.4629532,97.6858487 L75.4629532,83.447557 L79.4738605,83.447557 C83.3515352,83.447557 85.8575196,85.6192432 85.8575196,90.5657945 C85.8575196,95.5123457 83.3515352,97.6858487 79.4738605,97.6858487 L79.4738605,97.6858487 Z M104.418034,78.6681517 L94.658745,78.6681517 L94.658745,102.465254 L104.418034,102.465254 C112.57187,102.465254 116.583383,97.6858487 116.583383,90.5657945 C116.583383,83.447557 112.57187,78.6681517 104.418034,78.6681517 L104.418034,78.6681517 Z M104.317504,97.6858487 L100.306597,97.6858487 L100.306597,83.447557 L104.317504,83.447557 C108.193362,83.447557 110.701163,85.6192432 110.701163,90.5657945 C110.701163,95.5123457 108.193362,97.6858487 104.317504,97.6858487 L104.317504,97.6858487 Z M119.500572,102.465254 L125.149029,102.465254 L125.149029,78.6681517 L119.500572,78.6681517 L119.500572,102.465254 Z M144.542853,78.6681517 L144.542853,83.648011 C144.542853,87.325222 144.576161,90.7995566 144.676691,94.7105296 C143.573888,92.5055354 142.10409,90.0310485 140.96798,88.1603462 L135.150559,78.6681517 L129.06849,78.6681517 L129.06849,102.465254 L134.449271,102.465254 L134.449271,97.4853947 C134.449271,93.8420974 134.415963,90.3653404 134.315433,86.4894922 C135.420052,88.6611784 136.689396,90.7662485 138.025961,92.9730596 L143.840959,102.465254 L149.925451,102.465254 L149.925451,78.6681517 L144.542853,78.6681517 Z M165.609352,89.1959244 L165.609352,93.6077297 L170.890208,93.6077297 C170.489299,96.3492867 168.117153,98.1200649 165.208443,98.1200649 C161.130314,98.1200649 158.724859,95.2785836 158.724859,90.5657945 C158.724859,85.8530053 161.063697,83.0133409 164.941372,83.0133409 C167.882785,83.0133409 169.820714,84.416519 170.489299,86.6899463 L176.270989,86.6899463 C175.502479,81.4078919 171.090663,78.1334057 164.907458,78.1334057 C157.386477,78.1334057 152.840822,83.0133409 152.840822,90.5657945 C152.840822,98.1200649 157.353169,103 164.239478,103 C167.549098,103 170.355461,101.763968 171.959097,99.322789 L172.628894,102.465254 L176.571368,102.465254 L176.571368,89.1959244 L165.609352,89.1959244 Z" id="Fill-5"></path>
      </g>
    </g>
  </g>
</svg>
